<svg width="16" height="16" viewBox="0 0 16 16" fill="none" xmlns="http://www.w3.org/2000/svg">
<path fill-rule="evenodd" clip-rule="evenodd" d="M7.33203 5.3335C7.33203 4.9655 7.6307 4.66683 7.9987 4.66683C8.3667 4.66683 8.66536 4.9655 8.66536 5.3335V8.66683C8.66536 9.03483 8.3667 9.3335 7.9987 9.3335C7.6307 9.3335 7.33203 9.03483 7.33203 8.66683V5.3335ZM7.33203 10.6668C7.33203 10.2988 7.6307 10.0002 7.9987 10.0002C8.3667 10.0002 8.66536 10.2988 8.66536 10.6668C8.66536 11.0348 8.3667 11.3335 7.9987 11.3335C7.6307 11.3335 7.33203 11.0348 7.33203 10.6668ZM7.9987 13.3335C5.05803 13.3335 2.66536 10.9408 2.66536 8.00016C2.66536 5.0595 5.05803 2.66683 7.9987 2.66683C10.9394 2.66683 13.332 5.0595 13.332 8.00016C13.332 10.9408 10.9394 13.3335 7.9987 13.3335ZM7.9987 1.3335C4.3167 1.3335 1.33203 4.31816 1.33203 8.00016C1.33203 11.6822 4.3167 14.6668 7.9987 14.6668C11.6807 14.6668 14.6654 11.6822 14.6654 8.00016C14.6654 4.31816 11.6807 1.3335 7.9987 1.3335Z" fill="#7D848D"/>
<mask id="mask0_2113_85070" style="mask-type:luminance" maskUnits="userSpaceOnUse" x="1" y="1" width="14" height="14">
<path fill-rule="evenodd" clip-rule="evenodd" d="M7.33203 5.3335C7.33203 4.9655 7.6307 4.66683 7.9987 4.66683C8.3667 4.66683 8.66536 4.9655 8.66536 5.3335V8.66683C8.66536 9.03483 8.3667 9.3335 7.9987 9.3335C7.6307 9.3335 7.33203 9.03483 7.33203 8.66683V5.3335ZM7.33203 10.6668C7.33203 10.2988 7.6307 10.0002 7.9987 10.0002C8.3667 10.0002 8.66536 10.2988 8.66536 10.6668C8.66536 11.0348 8.3667 11.3335 7.9987 11.3335C7.6307 11.3335 7.33203 11.0348 7.33203 10.6668ZM7.9987 13.3335C5.05803 13.3335 2.66536 10.9408 2.66536 8.00016C2.66536 5.0595 5.05803 2.66683 7.9987 2.66683C10.9394 2.66683 13.332 5.0595 13.332 8.00016C13.332 10.9408 10.9394 13.3335 7.9987 13.3335ZM7.9987 1.3335C4.3167 1.3335 1.33203 4.31816 1.33203 8.00016C1.33203 11.6822 4.3167 14.6668 7.9987 14.6668C11.6807 14.6668 14.6654 11.6822 14.6654 8.00016C14.6654 4.31816 11.6807 1.3335 7.9987 1.3335Z" fill="white"/>
</mask>
<g mask="url(#mask0_2113_85070)">
</g>
</svg>
