<svg xmlns="http://www.w3.org/2000/svg" viewBox="0 0 2578 252" style="enable-background:new 0 0 2578 252" xml:space="preserve"><style>.st1{fill:#355d4f}.st2{fill-rule:evenodd;clip-rule:evenodd;fill:#b69654}</style><path d="m853.7 42.3 35.1 168h-50.7l-7.5-36h-61.1l-21.5 36h-56.1l23.3-36H659l165.6-30-5.2-24.2-4.4-21.7-9.2 15.4 10.6 3.9h-64.6l48.7-75.4h53.2zm317 0h-122.6c.6.7 1 1.3 1.1 1.8.7 1.7.7 2.9.9 4.2.4 2.4.9 2.8.6 4.7-.6 3.6-1.2 3.3-2.3 5.4-1.1 2.2-1.8 4.7-2 5.4 0 .1.1.2.2.2.4 0 1.2.1 1.2 1.3.1 1.6-1.8 4.8-2.4 5.7-.5.9-1.7 2.8-2.7 3.4-1.8 1-2.3.4-2.5.9s-2 3.8-2.3 4.7c-.3 1.1-.5 2.5-.6 3.5 0 .2.1.3.2.4 3.5 1.4 12.7 4.6 14.9 8.4l-31 10c4.3-.5 9.1-1.1 13.3-1.6 5.8-.7 15.1-1.7 18.1-1.7s6.6.8 7.7.9c3.6.5 6.9.6 10.8 1.4 3.9.8 5 2.2 5.8 2.7.2.1.9.8.9.8 4.8-.3 12.2-.8 13.7-.9.8-.1 2.4-.1 2.7-.2 14.9-1.9 23.1-9 30.2-13.4 7.9-4.8 19.7-8.7 28.2-8.9 10.9-.3 18.8 1.6 24.1 6.3 5.2 4.8 7.3 11.1 5.2 20.6-2 9.2-5 13.4-11.7 17.6-6.8 4.2-14.2 5.6-23.1 4.7-14.7-1.3-27.8-10.5-33-13.5-4.5-2.6-10.6-5.3-17.5-5.9-.7-.1-2.7-.1-4 0-.5 0-6.1.4-9.6.7.4 1.3.5 2.4.5 2.6-.1 1.8-1.1 2.7-2.2 2.5-1-.1-3.5-2-4.3-3.6-.1-.1-.3-.2-.3 0v.8c-.1.5-.3 2-1.4 2.3-.9.2-2.3 0-3.2-.8-.3-.2-.7-.1-.8.2-.4 1.1-.6 1.7-2.7 1.3-1.4-.1-1.1.4-2 .6-2.2.4-3.3-.7-5-1.6s-1.2-2.5-2.9-2.8c-.3-.1-.9-.2-1.2-.2.9 3 2 6.7 2.8 12.6 0 .2-.1.3-.3.3l-1.8.2c-.2 0-.3.2-.2.3.4 2.3 1.6 6.6 1.8 9.7.4 5.6.4 7.3 0 10.1 0 .2.1.4.3.3.6-.1 1.5-.4 2.1-.8 0-1.2.5-3.1.6-3.3.2-.2.4-.5.6-.7s.3-.4.3-.6l.5-1.6c.1-.2.2-.5.3-.7l2.4-4.4s.6-1.2 1.6-.9c0 0 1.6.9 1.6 2.5 0 1.7-1.2 3.7-1.2 3.7l1 1.6s1.9.6 3.7-.7c0 0 .5-.3 1.6-1.2-.4-1.2.6-2.8 3.6-2.2 1 .4 3.9 2.7.3 5.1-.1.1-.1.3.1.3 3.9-.2 3.4 4.5.8 5.9-.2.1-.3.4-.1.6.4.6 1 1.6.9 2.5 0 0 0 1.2-3.8 2.6 0 0-1.2.5-.7 1.3.5.2 1 .4 1.6.5 0 0 3.5.8 2.8 2.7 0 0-.6 1.6-3.8.6 0 0-2 .1-3.2-.1-.6.2-3.2 1-6.3 1.6-.7.1-1.3.5-1.8 1.1-2.1 2.4-8.6 5.8-11.5 5.8-3.2 0-3.6-2.4-6-4.9-4.5-4.8-5.3-10.7-6-16.6-.1-.4-.6-.4-.7 0-.8 6.9-1.2 13.2-5.1 16.6-2.3 2.1-6 3.7-12 5.1-22.6 5.3-46.8 19.2-44.1 22.3 1.1 1.2 3.6-1.2 8.1-3.3 16.8-7.7 38.6-9.3 45.6-8.7.5 0 .9.4 1 1 .1.8.3 2.4 1.1 5 .6 2.2 1.3 6 3.6 8.2 4.2 3.9 3.6 5.4 2.6 10.6-.6 3.4 4.1 6.3 4.2 6.4h48.5l7.5-36h49.2c50.3 0 72.7-23 81.2-67 3.6-19.7 3.5-64.2-62.3-64.3zm-216.3 168c.7-.7 1.5-1.6 2.4-2.5 2.1-2.2.5-7.7.9-9.8.5-2.8 5.3-4.2 6.1-6.9 1-3.7-6.3-3.1-2.8-7 2.2-2.4 5.4-1.6 5.1-4-.3-3.9 3.5-6.5 5.1-7.8 7-5.3 22.6-13.6 32.1-16.4 9.9-2.9-3.8-2.6-15.1 1.5-10.3 3.8 13.3-11 32-15.7 13.3-3.3-9.8-4-31 5.4-6.8 3-10.5 4.8-13.2 6.5-.1.1-.2 0-.2-.2 1.1-2.1 3.3-5.8 2.6-9.6-.4-2.5-.2-5.3.9-7.2.8-1.5.3-5.6 1.2-7.8.1-.2.3-.2.4-.2l11.4 3.6 44.6-15.2-42.5 6.3-14.7-12.6c-2.1-2.2-4.2-10.9-2.1-14.1 3.1-4.6 6.3-8.1 7.7-9.3 2-1.8 8.2-2.5 11.2-4 3.4-1.7 6.1-.5 8.5-.9 2.3-.5 6.5-1.9 7.8-2.4.1 0 .1-.1.1-.2 0-.5-.1-2.2-.2-2.9-.7-3.1-1-6-.8-8.2.2-2.6 2.6-5 2.7-6.7.1-1.8-1.2-3.6-.2-5.3.9-1.6 1.2-2.8 2.2-6.2-.3-2-1.5-2.7-.6-4.8.5-1.1 1.3-2.6 1.7-3.4H862.1l8.9 42.6h61.2l-6.7 32.7h46.1l-94.1 17 44.5-.1-15.6 75.7 48 .1zm163.9-97.3c1 .5 2.3-.3 2.3-1.6.1-4.2.8-6.2 1.7-9.6.4-1.4-.8-2.4-1.9-1.8-6.8 3.7-11.8 5.2-14.8 5.9-.3.1-.9.5-.9 1.1s.3.9.7 1c2.8.7 7.2 2.1 12.9 5zm95.8 90.3h-2.8l.3-1.6h7.5l-.3 1.6h-2.8l-1.4 7h-2l1.5-7zm15.9-1.7-1.7 8.7h-1.9l1-5.1-3.3 4.2h-.9l-1.8-4.3-1 5.2h-1.9l1.7-8.7h1.6l2.2 5.4 4.2-5.4h1.8zm63.9-159.2h73.8c43.2 0 65.4 18.6 65.4 48.8 0 21.7-9.4 36.5-29.1 40.1v.5c20.4 3.1 28.1 17.4 28.1 37.5v41.1h-30.9v-40.6c0-16.9-6.9-26-29.4-26h-47.3v66.7h-30.6V42.4zm74.3 81.2c24.8 0 35.5-10.7 35.5-28.6 0-16.9-11.8-27.1-36.3-27.1h-42.9v55.7h43.7zm204.8 49h-78.4l-14.3 37.8h-31.7l68.4-168h37.3l68.2 168H1587l-14-37.8zm-7.7-20.4-31.2-83.8h-.5l-31.4 83.8h63.1zM1642 42.4h46l79.9 127.7h.5l-.5-127.7h28.9v168h-36.3l-89.6-142.5h-.2l.2 142.5H1642v-168zm184.9 0h30.6v93.2h.5l88.9-93.2h38l-74.6 76.9 79.2 91.2h-40.9l-59.8-71.5-31.4 30.6v40.9h-30.6V42.4h.1zm181.5 0h30.4v168h-30.4v-168zm61.8 0h46l79.9 127.7h.5l-.5-127.7h28.9v168h-36.3l-89.6-142.5h-.2l.2 142.5h-28.9v-168zm179.1 85.8c0-53.9 37.3-88.4 86.8-88.4 42.4 0 74.3 22.7 74.3 61 0 2.8-.3 6.9-.5 10h-27.3c.3-3.1.3-5.9.3-8.2 0-23.7-20.4-37.3-46.2-37.3-32.4 0-56.4 24.3-56.4 63.1s24.8 60.8 55.2 60.8c26.8 0 46.7-15.6 46.7-38.3v-3.8h-52.1v-19.4h81.7v82.7h-25.5c.5-6.6 1.3-18.6 1.5-30.1h-.3c-5.1 19.4-24 32.7-54.6 32.7-48.2 0-83.7-32.2-83.6-84.8zm185.4 24.8h27.6c0 21.4 10.2 36.3 42.4 36.3 34.2 0 42.9-12.8 42.9-26.6 0-9.2-3.8-14.6-11.8-17.4-8.4-3.3-26.6-5.6-41.1-7.7-16.9-2.3-34.7-6.1-43.9-12-10.2-6.4-16.6-17.9-16.6-33.7 0-30.6 26.3-52.1 70.2-52.1 49.8 0 67.9 22 67.9 60.3h-27.6c0-24.8-13.5-36.5-39.8-36.5s-40.3 10.5-40.3 25.8c0 9.4 3.3 15.1 10 18.1 7.4 3.6 26.3 6.6 40.9 8.7 17.6 2.8 34 5.6 44.4 11.2 11.5 5.9 18.1 17.6 18.1 33.2 0 27.1-15.8 52.3-73 52.3s-70.3-29.3-70.3-59.9z"/><path d="M417.1 58.7c-5-5-11.8-9-20.5-12s-19.8-4.5-33.3-4.5h-72v1s10.5 7.3 10.5 26.6v140.3h29.6v-143h31.4c7.5 0 13.7.7 18.6 2s8.8 3.2 11.7 5.7c2.9 2.5 4.9 5.6 6.1 9.3 1.2 3.7 1.7 8.1 1.7 13.1 0 4.8-.5 9.1-1.6 13-1.1 3.8-3 7.1-5.9 9.8-2.8 2.7-6.7 4.9-11.6 6.4s-11.2 2.2-18.8 2.2h-11.2l-10.5 25.2h22.4c13.1 0 24-1.5 32.6-4.6s15.5-7.2 20.5-12.5c5.1-5.2 8.6-11.3 10.6-18.3s3-14.3 3-21.9c0-7.1-1-14-3-20.5-1.8-6.6-5.3-12.4-10.3-17.3zm36.4-16.5v1S464 50.5 464 69.8v140.3h30.1v-168l-30.1.1h-10.5zM643 68.1l10.5-25.9H529.4v1s10.5 7.3 10.5 26.6v140.3H570v-65.5h59.1l10.5-25.9H570V68.1h73z" style="fill:#345c4f"/><path class="st1" d="M251.7 126.2c0 69.5-56.3 125.8-125.8 125.8S0 195.7 0 126.2 56.3.3 125.8.3s125.9 56.4 125.9 125.9zM125.8 9.8C61.5 9.8 9.4 61.9 9.4 126.2s52.1 116.4 116.4 116.4 116.4-52.1 116.4-116.4S190.1 9.8 125.8 9.8z"/><path class="st1" d="M125.8 38.5c-48.4 0-87.7 39.3-87.7 87.7s39.3 87.7 87.7 87.7 87.7-39.3 87.7-87.7-39.2-87.7-87.7-87.7zm0 171.6c-46.4 0-83.9-37.6-83.9-83.9 0-46.4 37.6-83.9 83.9-83.9s83.9 37.6 83.9 83.9c.1 46.3-37.5 83.9-83.9 83.9zm108-100-13.3 2.5-.5-3 13.3-2.5.5 3zm-.7 36.6-13.4-2.3.6-3 13.4 2.3-.6 3zm-12.4-7.9.3-3 4.9.5.3-2.7c.2-2.2 1.8-4 4.6-3.7 2.6.3 4.4 2.1 4 5.4-.4 3.6-2.8 4.6-5.5 4.3l-8.6-.8zm9.4-2.1c1.4.2 2.5-.4 2.6-1.6.1-1.1-.6-1.9-2.1-2.1-1.4-.2-2.3.5-2.5 1.5l-.2 1.9 2.2.3zm-.1-19.6.1 2.3 4.7-.3.2 3.1-4.7.3.1 2.2 4.5-.3.2 3.1-6.6.4-.6-10.6-7 .4-.2-3.1 13.6-.8.2 3.1-4.5.2zm-199.1-2.9-12.9-2 .5-3 8.4 1.3.4-2.3 2.2.3-.1.3c-.1.7 0 1.3.4 1.8s.9.8 1.5 1.1l-.4 2.5zm-8.5 3.6c.4-.6.9-1.1 1.5-1.4.7-.4 1.4-.5 2.3-.5 1.1.1 1.9.3 2.6.8s1.1 1.1 1.4 1.8.4 1.5.4 2.2c-.1 1.7-.7 3-2 3.7-1.2.7-2.9 1-5.1.9-2.5-.1-4.2-.7-5.2-1.6-1-.9-1.4-2.2-1.3-3.7.1-1.1.4-2.1 1.1-2.8.6-.7 1.5-1.2 2.6-1.4l.3 2.9c-1 .2-1.5.6-1.6 1.4 0 .7.2 1.2.9 1.6.6.3 1.4.5 2.4.6v-.1c-.3-.3-.6-.7-.7-1.2-.2-.4-.2-.9-.2-1.4 0-.6.2-1.2.6-1.8zm2.2 1.5c-.4.3-.6.7-.6 1.2s.1.9.5 1.3.9.6 1.5.6c.7 0 1.2-.1 1.6-.4.4-.3.6-.7.6-1.3 0-.5-.1-.9-.5-1.3-.3-.4-.9-.6-1.6-.6-.5 0-1.1.2-1.5.5zm5.5 7.4.5 9.5-2.8.2-10.5-4.8-.2-3.6 10.5 4.9-.3-6.1 2.8-.1zm1.6 16.3-12.9 1.9-.5-3 8.4-1.3-.4-2.3 2.2-.3.1.3c.1.7.4 1.2.9 1.6.5.4 1.1.6 1.8.6l.4 2.5zm183.8-76.3c.7-.5.9-1.5.4-2.2-.5-.7-1.5-.9-2.2-.4-.7.5-.9 1.5-.4 2.2s1.5.9 2.2.4zm3.8 15.1-2.7-5.5-1.6.2 1.9-1.2-1.7-2.8-5.5 3.3c-.7-1.1-1.4-2.3-2.1-3.4l5.4-3.8-1.9-2.7-5.3 3.8c-.7-1-1.5-2.1-2.3-3.1l1.6-1.3c2.4-2 2.6-4.3.4-7l-1.5-1.8-1.7 1.5.9 1.1c1.3 1.5 1.2 2.5.1 3.4l-1.9 1.6c-1.1-1.4-2.3-2.8-3.5-4.1l-1.6 1.5c2.8 3 5.3 6.2 7.7 9.6.6.9 1.4 1.4 2.3 1.5l-.4 1.3c3.4 5.2 6.3 10.7 8.7 16.5l3.1-1.6c3-1.6 2.8-4.6 1.6-7zm-2.7 3.7-1.4.7c-1.2-2.6-2.4-5.1-3.8-7.6l3-1.9 2.8 5.8c.6 1.4.4 2.5-.6 3z"/><path class="st1" d="m192.3 45.1-4.2 5.6c-2.7 3.6-6.7 2.8-9.8.4-3.1-2.3-5-6-2.4-9.4l1.1-1.4 2.7 2-1.3 1.7c-1.5 1.9-.3 4.2 1.5 5.4 1.2.9 2.8 1.4 4.1.7l-1.5-1.1c-2.2-1.6-2.8-4.3-1.2-6.4 2-2.6 5.1-2.1 7.3-.4l3.7 2.9zm-5.2-1.2c-1-.7-2.3-.7-3.2.5-.9 1.1-.6 2.5.4 3.2l1.2.9c0-.1.1-.2.2-.2l2.7-3.6-1.3-.8zm1.3-4.3c-.6-.5-.7-1.3-.3-2 .5-.6 1.4-.8 2-.3s.7 1.4.3 2c-.5.7-1.4.8-2 .3zm2.9 2.2c-.6-.5-.7-1.3-.3-2 .5-.6 1.4-.8 2-.3s.8 1.4.3 2-1.4.8-2 .3zm10.5 12.1-5.4 5.6c-3 3.1-5.5 2.5-8.2-.1l-1.3-1.2 1.4-1.5.9.9c1.3 1.3 2.4 1.6 3.8.5l-1.6-1.6c-2-1.9-2.2-4.6-.4-6.5 2.3-2.3 5.2-1.5 7.3.5l3.5 3.4zm-7.2 2.7 3.2-3.4-1.1-1.1c-.9-.9-2.2-1-3.2.1-1 1-.9 2.4 0 3.3l1.1 1.1zM80.2 33.5c.7-.4 1-1.2.6-1.9s-1.2-1-1.9-.6-1 1.2-.6 1.9 1.3 1 1.9.6zm-3.1 1.7c.7-.4 1-1.2.6-1.9s-1.2-1-1.9-.6-1 1.2-.6 1.9c.3.6 1.2.9 1.9.6zm46.4-16.5c0 .8.6 1.4 1.4 1.4.8 0 1.4-.6 1.4-1.4 0-.8-.6-1.4-1.4-1.4-.8 0-1.4.6-1.4 1.4zm-2.1 1.4c.8 0 1.4-.6 1.4-1.4 0-.8-.6-1.4-1.4-1.4-.8 0-1.4.6-1.4 1.4 0 .8.6 1.4 1.4 1.4zm1.7-3.1c.8 0 1.4-.6 1.4-1.4 0-.8-.6-1.4-1.4-1.4-.8 0-1.4.6-1.4 1.4 0 .8.6 1.5 1.4 1.4zm9.9 3.3c.8 0 1.4-.5 1.5-1.3 0-.8-.5-1.4-1.3-1.5-.8 0-1.4.5-1.5 1.3 0 .8.6 1.4 1.3 1.5zm-3.5-.2c.8.1 1.4-.5 1.5-1.3 0-.8-.5-1.4-1.3-1.5-.8 0-1.4.5-1.5 1.3s.5 1.4 1.3 1.5z"/><path class="st1" d="m89.9 37.5-3.3-8.1-2.6 1 2.5 6.2c-3.4 1.5-7 3.4-8.7 4.4-1.4.8-2.1.6-2.8-.8l-1-1.8-2.9 1.6.7 1.2c1.7 3.2 3.9 3.3 6.7 1.9 3.7-2.1 7.5-4 11.4-5.6zm54.1-5.2c1.1.2 2.1 0 2.8-.6l.6 1.3c1.9.4 3.7.9 5.5 1.4l2.2-8.5-3.2-.8-1.6 6.3c-.9-.2-1.8-.5-2.8-.7.2-.3.3-.7.4-1l.9-4.5-3.3-.7-1.1 5.6-3.3-.6.8-5.5-3.3-.5-.8 5.5c-1.2-.1-2.8-.3-4-.4l.5-6.5-3.3-.3-.5 6.6c-1.4-.1-2.7-.1-4.1-.1v-6.5h-3.3l-.1 6.6c-1.2 0-2.4.1-3.7.2l-.3-2.2c-.4-3.3-3.3-4.4-6.1-4.1l-3.9.6-.3 4.4c-.2 1.7-.7 2.8-2.1 3l-1.6.3-2.9-11.7-3.2.8 2.7 10.7c.4 1.9 2 2.8 3.9 2.4.6-.1 1.1-.2 1.7-.3 1.9-.4 3.3-1.2 4-2.5l1.6 1.6c3.4-.5 6.9-.8 10.5-.8 1.1 0 1.8-.5 2.4-1.2l1 1.1c1.3 0 2.6.1 3.9.1 1.1.1 2-.3 2.6-1l.7 1.2c3.4.2 6.7.6 10.1 1.3zm-32.6-2.9c.3-.6.6-1.4.7-2.2l.3-2.6.9-.1c1.2-.2 2.3.6 2.5 2.1l.3 2.3c-1.7.1-3.2.3-4.7.5zM171 26l-3.1-1.3-4.6 11.1c-1-.4-1.9-.8-2.9-1.2l3.2-9.3-3.1-1.1-3.2 9.3c-.8-.3-1.6-.5-2.3-.8l-.6 2.1c3.8 1.2 7.6 2.6 11.2 4.3L171 26zm-81.1-3.7L95 35.6l-3.1 1.1-5.1-13.3 3.1-1.1zm10.4 11.3c.8 2.8-.1 5-3.1 6.5l-1.3-1.7c1.3-.7 1.9-1.5 1.5-3l-2.6-8.8 3.2-.9 2.3 7.9zm76.5-4.8-6.2 12.8-3-1.5 6.2-12.8 3 1.5zM27.7 81.1c-.7-.3-1.5 0-1.9.7-.3.7 0 1.5.7 1.9.7.3 1.5 0 1.8-.7.4-.7.1-1.6-.6-1.9zm1.5-3.3c-.7-.3-1.5 0-1.9.7-.3.7 0 1.5.7 1.9.7.3 1.5 0 1.8-.7.4-.7.1-1.5-.6-1.9zm19.3-7.9c-.3-.2-1.6-.9-3.9-2.4-2.7-1.7-5.5-.3-7.1 2.1l-1.9 3 3 3.4c1.2 1.3 1.8 2.3 1.2 3.6l-.1.1-.2.3-.6 1.1-6.7-3.5-1.5 2.9 1.1.6-1.2 2.3c-1.1 2.3-.5 4.8 1.7 5.9 2.3 1.2 4.8.2 5.9-2.1l.3-.1c.2-.4.3-.7.5-1.1l.4-.8-.7-1.4c.9-.2 1.6-.7 2.2-1.6.2-.5 1-1.9 1-1.9.9-1.7 1.1-3 .6-4.5l2.3-.4c1.1-1.8 2.4-3.6 3.7-5.5zM36.8 85.7c-.5 1.1-1.5 1.5-2.6.9-1.1-.5-1.5-1.6-1-2.6l.8-1.7 2.5 1.3c.4.2.7.3 1.1.4l-.8 1.7zm5.6-10.4-.2.2c-.3-.6-1-1.5-1.4-2-.5-.5-1.8-2-1.8-2l.5-.7c.6-1 1.9-1.4 3.2-.6l2.1 1.4c-.8 1.2-1.6 2.4-2.4 3.7zM55 62c.9-1 1.3-2 1.8-3 .8-.2 1.7-.6 2.6-1.5 2.1-2.2 4.5-4.1 6.8-6l-8.9-11.2-2.6 2.1 7.6 9.6c-1.4 1.2-2.7 2.4-4 3.7.2-1.6-.3-3.1-1.2-3.9-1.4-1.3-3.7-1.3-6.1 1.2-1.2 1.3-2.1 2.9-2.8 4.2 0 0 .4 1.6.4 1.7 0 .2.4.4.8.5.3.1 3.4.7 4.5.8-1.4 1.6-2.8 3.2-4.2 4.9l-9.5-7.6-2 2.6 8.5 6.8c1.5 1.2 3.4 1 4.6-.5 1.2-1.6 2.4-3 3.7-4.4zm-4.2-5.1c.4-.7.8-1.5 1.3-2 1-1.1 2.2-1.3 3.1-.4.6.6.9 1.6.6 2.8-1.3.2-4.6-.3-5-.4zm11.4-20.3 8.3 11.6-2.7 2-8.3-11.6 2.7-2zM39.4 169.7c-.4 1-1.3 1.8-2.5 2.4-1.3.6-2.4.7-3.5.3-1-.4-1.8-1.1-2.4-2.4l-1.2-2.6-4 1.8-1.2-2.7 12.1-5.5 2.4 5.3c.6 1.2.7 2.4.3 3.4zm-6.1-1.3c.2.5.5.8 1 1 .4.1.9.1 1.4-.1.5-.2.8-.5 1-.9s.1-.9-.1-1.4l-.9-2.1-3.2 1.5.8 2zm3.8 17.4c-.9 0-1.7-.2-2.5-.7-.7-.5-1.4-1.1-1.9-2-.8-1.3-1.1-2.7-.9-3.9.3-1.3 1.1-2.4 2.6-3.3l7.2-4.4 1.6 2.6-6.9 4.2c-1.5.9-1.9 2.1-1.2 3.3.8 1.3 1.9 1.4 3.5.5l6.9-4.2 1.6 2.6-7.2 4.4c-1 .5-1.9.8-2.8.9zm16.1 4c-.1.9-.6 1.7-1.4 2.4-.5.4-1 .6-1.5.7-.5.1-1 0-1.5-.2h-.1c.1.6.1 1.2-.1 1.8s-.6 1.1-1.2 1.6c-1 .8-1.9 1.1-2.9 1.1-1-.1-1.8-.6-2.6-1.5l-4.2-5.2 10.4-8.3 4.1 5.1c.8.7 1.1 1.6 1 2.5zm-9.5 3.6c.3.4.6.6 1 .6s.7-.1 1.1-.4c.4-.3.6-.6.6-1s-.1-.7-.4-1.1l-1.9-2.3-2.3 1.9 1.9 2.3zm4-3.5c.3.3.6.5.9.6.3 0 .7-.1 1-.4.3-.3.5-.6.6-.9 0-.3-.1-.7-.3-1l-1.8-2.2-2.2 1.7 1.8 2.2zm-1.1 11 9.3-9.5 2.2 2.1-7.3 7.4 4.3 4.2-2 2.1-6.5-6.3zm8.2 7.7 8.6-10.2 2.3 1.9-8.6 10.2-2.3-1.9zm14.6 8.2c-.8.4-1.7.5-2.6.4s-1.8-.4-2.6-1c-1-.7-1.7-1.5-2.1-2.5s-.6-2-.4-3.2.7-2.3 1.5-3.5 1.7-2.1 2.8-2.6c1-.6 2.1-.8 3.2-.7s2.1.4 3.1 1.1c.8.6 1.5 1.3 1.9 2.1s.6 1.7.6 2.5c0 .9-.2 1.7-.5 2.4l-2.7-1.3c.3-.6.4-1.2.2-1.9-.1-.6-.5-1.1-1-1.5-.4-.3-.9-.5-1.5-.5s-1.1.1-1.7.5-1.1.9-1.7 1.7c-.5.8-.8 1.5-1 2.2-.1.7-.1 1.3.1 1.8s.5.9 1 1.2c.6.4 1.2.5 1.8.4.6-.1 1.2-.5 1.8-1.1l2.3 2c-.9.6-1.7 1.1-2.5 1.5zm5.6 5.6 6.1-11.8 2.7 1.4-6.1 11.8-2.7-1.4zm15.5 6.9-3.1-1.3-.9-9.7h-.1l-3.2 8.1-2.5-1 4.9-12.4 3.2 1.3 1 9.5h.1l3.1-7.9 2.5 1-5 12.4zm17.6-9.1-7.2 11.9-3.5-.9-.7-13.9 3.1.8.2 10.1h.1l5-8.8 3 .8zm3.6 5.7 5.6.7-.3 2.6-5.6-.7-.3 2.7 5.9.7-.4 2.8-8.9-1.1 1.7-13.2 8.9 1.1-.3 2.7-5.9-.7-.4 2.4zm14-1.5c-.3-.3-.8-.5-1.4-.5-.5 0-1 .1-1.3.3-.3.2-.5.5-.5.9 0 .3.1.6.3.8.2.2.6.3 1.1.5l1.8.6c.8.2 1.5.5 2 .8s.9.7 1.3 1.2c.3.6.5 1.3.5 2.3 0 1.4-.5 2.4-1.5 3.1s-2.2 1-3.6 1c-1.5 0-2.7-.4-3.7-1.2-1-.8-1.5-1.9-1.6-3.3l3-.3c.1.7.3 1.3.7 1.7.4.4 1 .6 1.6.6s1-.1 1.4-.3c.4-.2.5-.6.5-1s-.1-.7-.4-.9-.7-.4-1.3-.6l-1.7-.5c-.7-.2-1.3-.5-1.8-.7-.5-.3-.9-.6-1.2-1.1s-.5-1.2-.5-2.1c0-1.3.5-2.3 1.4-3s2.1-1 3.5-1c1.3 0 2.4.4 3.2 1.1s1.4 1.8 1.5 3.1l-2.9.2c.2-.9 0-1.3-.4-1.7zm14.8-.7-3.7.3 1 10.3-3 .3-1-10.3-3.7.3-.3-2.9 10.3-1 .4 3zm13.2-5.9 3 13-2.7.6-2.1-9.1h-.1l-.2 9.6-2.1.5-4.4-8.5h-.1l2.1 9.1-2.7.6-3-13 4.3-1 3.6 7.4h.1v-8.2l4.3-1zm6.7 3 5.3-2 .9 2.4-5.3 2 1 2.5 5.6-2.1 1 2.6-8.4 3.2-4.7-12.4 8.4-3.2 1 2.5-5.6 2.1.8 2.4zm21.1-.9-3 1.6-8-5.6h-.1l4.1 7.7-2.4 1.3-6.2-11.8 3-1.6 7.9 5.4h.1l-4-7.5 2.4-1.3 6.2 11.8zm5.1-16.1-3 2.1 6 8.5-2.5 1.7-6-8.5-3 2.1-1.7-2.4 8.5-6 1.7 2.5zm6.2-5.7 2 2.1 4.1-3.9 1.8 1.9-4.1 3.9 3.5 3.7-2.2 2.1-9.2-9.6 6.5-6.2 1.9 2-4.3 4zm18.5-7.6c.3.8.4 1.7.2 2.5-.2.9-.6 1.7-1.3 2.5-1 1.2-2.1 1.9-3.4 2.1-1.3.2-2.6-.3-3.9-1.4l-6.5-5.3 1.9-2.3 6.2 5.1c1.4 1.2 2.6 1.2 3.5 0 1-1.2.7-2.3-.7-3.5l-6.2-5.1 1.9-2.3 6.5 5.3c.9.7 1.5 1.5 1.8 2.4zm9.8-11.3-1.8 2.9-9.7-.8v.1l7.4 4.6-1.5 2.3-11.3-7 1.8-2.9 9.5.8v-.1l-7.2-4.5 1.5-2.3 11.3 6.9zm-4.9-16.8c1.4-.5 3.2-.3 5.2.6 2 .9 3.3 2.1 3.9 3.5s.5 3-.3 4.6l-2.2 4.8-12.1-5.5 2.2-4.8c.7-1.6 1.8-2.7 3.3-3.2zm6.2 8.1c.5-1 .5-1.9.2-2.6-.3-.8-1.1-1.4-2.4-2s-2.4-.8-3.1-.5c-.8.3-1.4.9-1.8 1.9l-.7 1.6 7.2 3.3.6-1.7z"/><path class="st2" d="M200.3 127.1v-.2c-27.3-3.8-52.2 5.6-74.5 25.6-22.3-20-47.2-29.5-74.5-25.6v.2c28.5 1.2 52.4 16 71.5 33.9 3.7 3.5 9.6 9.4 12.5 12.9l-1.5 1.2c-1.3 1.1-1.4 3-.4 4.3 1.1 1.3 3 1.4 4.3.4l1.5-1.2c.9 1.2 1.8 2.2 2.2 2.7 0 0 3 4.5 6.1 8.9 7.6 10.6 17.3 6.5 18.2 1.2.9-5.5-4.1-7.8-8.1-7.2 0 0-.8 0-1.7-.3-2.9-1.2-7.5-6.5-10.7-10.4l2.9-2.4c1.3-1.1 1.4-3 .4-4.3-1.1-1.3-3-1.4-4.3-.4l-2.7 2.3c-3.1-3.7-6.3-7.3-9.6-10.5 16.4-14.8 39.9-29.9 68.4-31.1z"/><path d="m140.8 72.5 17 1.6c-1.7-6.4-9-9-16.5-8.1 2.3-2.3 8.1-3.9 13.5-3.5-5-5.6-11.3-5.9-19-2.4l6.7-6.8c-5.5-2.2-10.9.8-13.5 4.6 0-1.7-1.6-9-3.1-10.2-1.5 1.2-3.1 8.5-3.1 10.2-2.6-3.8-8-6.8-13.5-4.6l6.7 6.8c-7.6-3.4-13.9-3.2-19 2.4 5.3-.4 11.2 1.3 13.5 3.5-7.5-.9-14.8 1.7-16.5 8.1l17-1.6c-6.3 1.9-11.5 3.7-13.3 14.5l17.4-8.9c-5.3 3.7-7.6 14.7-3.7 19.2 1.3-2.9 7.8-14 10.4-16.2 2 16.1.6 42.2-.5 47.5l-1.5 2c-3.3.1-9.2.3-12.6.9 2.1 1.1 4.2 2.4 6.2 3.7 6.6-.8 15.3-.9 19.3.7-4.7-.1-10.2.9-15.1 2.1 2.7 1.9 4.9 3.6 6.1 4.6.7.5 1.5.8 2.3.8s1.7-.3 2.3-.8c2.4-2 9.5-7.3 16.4-11.1-3.3-.6-9.3-.8-12.6-.9l-1.5-2c-1.1-5.3-2.5-31.4-.5-47.5 2.6 2.2 9.1 13.3 10.4 16.2 3.9-4.5 1.5-15.5-3.7-19.2l17.4 8.9c-1.9-10.8-7.1-12.6-13.4-14.5z" style="fill:#b69654"/><path class="st2" d="M116.4 173.9c1.5-1.9 4-4.5 6.5-7.1-1-1-2-2-2.9-2.8-1-.9-2-1.9-3.1-2.8-2.3 2.4-4.5 4.9-6.7 7.5l-2.7-2.3c-1.3-1.1-3.2-.9-4.3.4-1.1 1.3-.9 3.2.4 4.3l2.9 2.4c-3.2 3.9-7.8 9.1-10.7 10.4-.9.3-1.7.3-1.7.3-4.1-.6-9.1 1.7-8.1 7.2.9 5.3 10.6 9.4 18.2-1.2 3.1-4.3 6.1-8.9 6.1-8.9.4-.5 1.2-1.6 2.2-2.7l1.5 1.2c1.3 1.1 3.2.9 4.3-.4 1.1-1.3.9-3.2-.4-4.3l-1.5-1.2z"/></svg>
