<svg id="Infosys_ATP_Stats" data-name="Infosys ATP Stats" xmlns="http://www.w3.org/2000/svg" viewBox="0 0 470.4 52"><defs><style>.cls-3{fill:#051224}</style></defs><path class="cls-3" d="m189.91 4.99 8.78 42.02h-12.68l-1.87-9h-15.3l-5.39 9h-14.03l5.82-9h-14.06l41.42-7.52-1.3-6.05-1.1-5.42-2.3 3.84 2.66.97h-16.15L176.58 5h13.32Zm79.29 0h-30.66c.16.17.24.33.28.44.16.42.18.74.23 1.05.11.61.22.7.15 1.17-.14.91-.31.82-.59 1.36-.28.54-.46 1.16-.51 1.35 0 .02.01.05.04.04.1 0 .31.02.31.33.01.41-.46 1.2-.59 1.43-.13.23-.43.69-.68.84-.44.26-.57.11-.64.23s-.5.95-.57 1.17c-.08.28-.12.63-.14.88 0 .04.02.08.06.09.88.34 3.17 1.16 3.72 2.09l-7.75 2.51c1.08-.13 2.27-.28 3.33-.4 1.44-.16 3.78-.43 4.53-.42.74 0 1.66.2 1.93.23.91.12 1.72.15 2.7.35.98.2 1.25.54 1.44.67.04.03.24.19.24.19 1.2-.09 3.04-.2 3.44-.23.2-.02.61-.04.69-.05 3.73-.48 5.77-2.26 7.55-3.34 1.97-1.2 4.93-2.18 7.05-2.24 2.74-.07 4.71.39 6.02 1.59 1.31 1.19 1.82 2.77 1.3 5.15-.51 2.3-1.24 3.35-2.94 4.41s-3.57 1.39-5.77 1.19c-3.68-.34-6.97-2.63-8.27-3.38-1.12-.64-2.65-1.32-4.38-1.48a8.34 8.34 0 0 0-1.01 0c-.12 0-1.52.11-2.41.17.1.33.12.6.12.66-.03.45-.28.66-.55.63-.25-.03-.88-.5-1.07-.89-.02-.04-.07-.05-.07 0v.21c-.01.12-.09.5-.35.58-.22.06-.57 0-.81-.19a.132.132 0 0 0-.21.06c-.1.27-.15.44-.67.33-.35-.04-.28.1-.51.14-.55.11-.82-.19-1.25-.39s-.29-.62-.73-.69c-.09-.01-.23-.04-.31-.05.21.75.49 1.67.69 3.15 0 .04-.02.08-.06.09l-.45.05s-.07.04-.06.08c.11.57.39 1.65.45 2.42.11 1.41.09 1.82 0 2.52 0 .05.03.09.08.08.14-.03.38-.1.51-.2 0-.31.13-.78.16-.82.04-.06.09-.12.14-.18.04-.04.06-.09.08-.14l.12-.41c.02-.06.04-.12.07-.17l.61-1.09s.14-.3.39-.23c0 0 .4.22.39.64 0 .42-.29.93-.29.93l.26.41s.47.15.92-.18c0 0 .13-.08.39-.29-.11-.31.16-.69.89-.55.26.11.98.68.07 1.28-.03.02-.02.07.02.07.98-.06.86 1.13.19 1.49-.06.03-.07.11-.03.16.1.14.25.4.22.64 0 0 0 .31-.95.64 0 0-.29.12-.17.33.12.04.24.09.39.14 0 0 .86.2.7.67 0 0-.14.41-.96.14 0 0-.5.03-.81-.02-.15.05-.8.26-1.57.39-.18.03-.32.13-.44.27-.53.62-2.15 1.45-2.88 1.46-.81 0-.91-.61-1.49-1.23-1.14-1.19-1.33-2.68-1.51-4.16-.01-.1-.16-.1-.16 0-.2 1.73-.31 3.29-1.27 4.15-.59.52-1.5.93-2.99 1.29-5.64 1.34-11.72 4.8-11.03 5.59.27.31.91-.31 2.02-.82 4.21-1.94 9.65-2.32 11.41-2.18.13 0 .22.11.24.24.02.21.09.59.27 1.24.15.54.33 1.51.9 2.05 1.05.98.91 1.34.66 2.66-.16.86 1.01 1.58 1.05 1.61h12.14l1.87-9h12.32c12.59 0 18.19-5.75 20.32-16.76.99-5.12.96-16.25-15.49-16.25Zm-54.11 42.02c.17-.18.36-.4.6-.63.53-.54.12-1.92.22-2.45.14-.69 1.33-1.06 1.52-1.74.26-.92-1.57-.77-.7-1.74.54-.61 1.34-.4 1.29-1-.09-.98.86-1.64 1.27-1.94 1.74-1.32 5.65-3.41 8.02-4.1 2.48-.72-.94-.65-3.77.38-2.57.94 3.33-2.75 8-3.93 3.33-.83-2.44-.99-7.76 1.34-1.69.74-2.63 1.2-3.31 1.64-.03.02-.06 0-.05-.04.26-.54.82-1.46.65-2.41-.11-.62-.04-1.31.21-1.79.2-.38.08-1.41.3-1.94.02-.04.06-.06.11-.05l2.86.89 11.16-3.8-10.63 1.58-3.69-3.15c-.52-.55-1.06-2.73-.52-3.54.78-1.15 1.57-2.04 1.91-2.34.5-.44 2.04-.63 2.79-1.01.84-.43 1.52-.14 2.12-.23.59-.12 1.63-.49 1.94-.6.02 0 .02-.02.02-.04 0-.12-.02-.54-.06-.74-.17-.78-.26-1.51-.21-2.04.06-.66.64-1.24.67-1.68s-.29-.89-.05-1.32c.23-.4.29-.71.54-1.55-.06-.5-.38-.68-.15-1.19.12-.27.33-.65.42-.84h-38.83l2.22 10.65h15.3l-1.68 8.18h11.53l-23.54 4.27 11.14-.02-3.9 18.94h12.03Zm40.99-24.33c.26.13.57-.07.57-.4.01-1.06.2-1.54.43-2.39.09-.34-.19-.61-.49-.46-1.71.93-2.96 1.31-3.71 1.47-.08.02-.22.12-.22.27 0 .15.09.24.16.26.72.17 1.83.52 3.25 1.25Z"/><path d="M280.04 45.25h-.69l.08-.41h1.89l-.08.41h-.69l-.35 1.76h-.5l.35-1.76Zm3.99-.41-.43 2.17h-.47l.26-1.29-.82 1.06h-.22l-.45-1.07-.26 1.3h-.47l.43-2.17h.41l.54 1.35 1.06-1.35h.43Z" style="fill:#181838"/><path class="cls-3" d="M299.74 32.45h6.7c0 5.21 2.48 8.8 10.29 8.8 8.31 0 10.42-3.1 10.42-6.45 0-2.23-.93-3.53-2.85-4.22-2.05-.81-6.45-1.36-9.98-1.86-4.09-.56-8.43-1.49-10.66-2.91-2.48-1.55-4.03-4.34-4.03-8.18 0-7.44 6.38-12.65 17.05-12.65 12.09 0 16.49 5.33 16.49 14.63h-6.7c0-6.01-3.29-8.86-9.67-8.86s-9.79 2.54-9.79 6.26c0 2.29.81 3.66 2.42 4.4 1.8.87 6.38 1.61 9.92 2.11 4.28.68 8.25 1.36 10.79 2.73 2.79 1.43 4.4 4.28 4.4 8.06 0 6.57-3.84 12.71-17.73 12.71s-17.05-7.13-17.05-14.57Zm49.03-20.7h-12.65V5.61h32.73v6.14H356.2V46.4h-7.44V11.75Zm45.13 25.47h-19.03l-3.47 9.17h-7.69L380.32 5.6h9.05l16.55 40.79h-8.62l-3.41-9.17Zm-1.86-4.96-7.56-20.33h-.12l-7.62 20.33h15.31Zm21.45-20.51h-12.65V5.61h32.73v6.14h-12.65V46.4h-7.44V11.75Zm22.13 20.7h6.7c0 5.21 2.48 8.8 10.29 8.8 8.31 0 10.42-3.1 10.42-6.45 0-2.23-.93-3.53-2.85-4.22-2.05-.81-6.45-1.36-9.98-1.86-4.09-.56-8.43-1.49-10.66-2.91-2.48-1.55-4.03-4.34-4.03-8.18 0-7.44 6.38-12.65 17.05-12.65 12.09 0 16.49 5.33 16.49 14.63h-6.7c0-6.01-3.29-8.86-9.67-8.86s-9.79 2.54-9.79 6.26c0 2.29.81 3.66 2.42 4.4 1.8.87 6.38 1.61 9.92 2.11 4.28.68 8.25 1.36 10.79 2.73 2.79 1.43 4.4 4.28 4.4 8.06 0 6.57-3.84 12.71-17.73 12.71s-17.05-7.13-17.05-14.57Z"/><path d="M61.14 13.72H61c-5.47.1-9.82 6.16-9.69 13.5.06 3.58 1.16 6.93 3.1 9.42 1.91 2.46 4.41 3.76 7.05 3.74 5.47-.1 9.82-6.16 9.7-13.51-.06-3.58-1.16-6.92-3.1-9.41-1.88-2.42-4.33-3.74-6.91-3.74Z" style="fill:none"/><path d="M121.9 24.47c-.54-.27-1.04-.51-1.51-.74-4.31-2.11-5.61-2.74-5.56-5.32 0-4.65 4.46-5.01 5.82-5.01 2.94 0 4.87 1.02 7.82 3.16l.58.42V11.2l-.24-.09c-2.29-.81-4.2-1.13-6.78-1.13h-.17c-6.03 0-10.29 2.45-11.38 6.51l-6.45 15.96-.31.91-.28-.94L98.35 20l-3.63-8.92-.17-.05c-2.07-.54-4.98-1.17-7.05-1.15h-.73c-4.16 0-7.76 1.2-9.86 3.3-1.34 1.33-2.08 2.99-2.21 4.92-2.76-5.16-7.81-8.42-13.26-8.42-.73 0-1.47.06-2.14.17H42.68c-.27-2 .06-3.62.98-4.7.72-.85 1.8-1.29 3.04-1.29 3.7 0 5.25 1.15 6.75 2.53l.1.1h.26l.4.04v-.4s0-.18.02-.5V1.26l-.21-.1C52.73.57 50.6.28 47.51.28c-5.5 0-9.27 3.66-9.89 9.58h-4.08v3.76h3.99v29.14h5.25V13.62h8.85c-3.53 3.25-5.6 8.13-5.6 13.25 0 9.47 6.91 17.18 15.41 17.18s15.41-7.71 15.41-17.18c0-.65-.03-1.29-.1-1.93 1.58 1.7 3.97 2.74 7.09 4.08l.43.18c4.34 1.84 6.86 3.43 6.86 6.12 0 1.19-.42 2.21-1.24 3.02-1.17 1.16-3.1 1.8-5.29 1.8-3.27 0-5.94-1.21-9.2-4.17l-.61-.55v6.41l.16.11c1.94 1.25 4.93 1.97 8.19 1.97 2.1 0 12.55-.53 12.55-10.14-.03-5.15-4.22-7.4-8.87-9.42-.68-.33-1.3-.64-1.88-.92-4.09-1.98-5.46-2.65-5.42-5.15 0-4.77 5.03-5.01 6.04-5.01 1.15 0 2.18.16 3.14.48 1.71.64 2.26 1.91 2.9 3.38l.36.82 8.6 20.73c-1.32 3.02-2.93 6.44-4.09 8.74l-2.3 4.29h5.27l.1-.21c1.9-4.2 9.87-23.61 11.61-27.85 1.38 2.69 4.16 3.89 8.19 5.64 4.34 1.83 6.86 3.43 6.86 6.12 0 1.19-.42 2.21-1.24 3.03-1.15 1.14-3.05 1.8-5.21 1.8-3.39 0-6.19-1.28-9.66-4.51l-.88-.74v6.43l.13.11c1.86 1.55 5.18 2.48 8.88 2.48 2.1 0 12.55-.53 12.55-10.14-.03-5.16-4.22-7.4-8.87-9.42Zm-50.74 2.41c.12 7.35-4.23 13.41-9.7 13.51-2.64.02-5.13-1.28-7.05-3.74-1.94-2.49-3.04-5.83-3.1-9.42-.13-7.35 4.22-13.41 9.69-13.5h.14c2.58 0 5.03 1.32 6.91 3.74 1.94 2.49 3.04 5.83 3.1 9.41ZM24.37 9.75c-5.3 0-7.77 1.82-9.57 3.67l-.05-3.25H9.63v32.59h5.24V19.12c.12-2.7 4.08-5.34 6.94-5.34 3.71 0 6.5 2.45 6.5 5.7v23.28h5.24V17.4c-.16-3.11-3.81-7.64-9.19-7.64ZM0 .42v42.34h5.73V.42H0z" style="fill:#0077be"/></svg>
